<?xml version="1.0" encoding="iso-8859-1"?>
<!-- Uploaded to: SVG Repo, www.svgrepo.com, Generator: SVG Repo Mixer Tools -->
<svg height="800px" width="800px" version="1.1" id="Layer_1" xmlns="http://www.w3.org/2000/svg" xmlns:xlink="http://www.w3.org/1999/xlink" 
	 viewBox="0 0 512.001 512.001" xml:space="preserve">
<path style="fill:#CAD1D8;" d="M24,16h464c13.254,0,24,10.745,24,24v432c0,13.254-10.745,24-24,24H24C10.745,496,0,485.255,0,472V40
	C0,26.745,10.745,16,24,16z"/>
<path style="fill:#FFFFFF;" d="M24,80h464c4.418,0,8,3.582,8,8v384c0,4.418-3.582,8-8,8H24c-4.418,0-8-3.582-8-8V88
	C16,83.582,19.582,80,24,80z"/>
<path style="fill:#ABE1FA;" d="M64,160h384c8.837,0,16,7.163,16,16v224c0,8.837-7.163,16-16,16H64c-8.837,0-16-7.163-16-16V176
	C48,167.163,55.163,160,64,160z"/>
<circle style="fill:#F19F35;" cx="143.995" cy="224" r="32"/>
<path style="fill:#595A66;" d="M464,384L347.28,267.28c-6.245-6.252-16.375-6.257-22.627-0.013
	c-0.004,0.004-0.008,0.008-0.013,0.013L176,416h272c8.837,0,16-7.163,16-16V384z"/>
<path style="fill:#35363E;" d="M400,336L400,336c-4.418,4.392-4.439,11.534-0.048,15.952c0.016,0.016,0.032,0.032,0.048,0.048
	l9.36,9.36c14.494,14.491,22.637,34.145,22.64,54.64h16c8.837,0,16-7.163,16-16v-16l-48-48c-4.392-4.418-11.534-4.439-15.952-0.048
	C400.032,335.968,400.016,335.984,400,336z"/>
<path style="fill:#595A66;" d="M163.92,301.76L52.8,411.36c2.98,2.956,7.002,4.622,11.2,4.64h224l-99.92-114.24
	c-5.795-6.672-15.9-7.382-22.572-1.589C164.942,300.663,164.412,301.194,163.92,301.76z"/>
<path style="fill:#35363E;" d="M275.36,364.96c-9.639-10.897-25.415-13.921-38.4-7.359L288,416h32L275.36,364.96z"/>
<g>
	<path style="fill:#6F707E;" d="M332.261,290.332L332.261,290.332c3.125,3.125,3.125,8.189,0,11.314l-22.627,22.627
		c-3.125,3.125-8.19,3.125-11.314,0l0,0c-3.125-3.125-3.125-8.189,0-11.314l22.627-22.627
		C324.071,287.208,329.137,287.208,332.261,290.332z"/>
	<path style="fill:#6F707E;" d="M173.697,323.779L173.697,323.779c3.125,3.125,3.125,8.19,0,11.314l-22.627,22.627
		c-3.125,3.125-8.189,3.125-11.314,0l0,0c-3.125-3.125-3.125-8.19,0-11.314l22.627-22.627
		C165.507,320.655,170.572,320.655,173.697,323.779z"/>
</g>
<g>
	<circle style="fill:#CAD1D8;" cx="256" cy="448" r="7.998"/>
	<circle style="fill:#CAD1D8;" cx="224" cy="448" r="7.998"/>
	<circle style="fill:#CAD1D8;" cx="288" cy="448" r="7.998"/>
</g>
<g>
	<circle style="fill:#9BA7AF;" cx="24.002" cy="47.995" r="7.998"/>
	<circle style="fill:#9BA7AF;" cx="56.002" cy="47.995" r="7.998"/>
	<circle style="fill:#9BA7AF;" cx="88.002" cy="47.995" r="7.998"/>
</g>
<g>
	<path style="fill:#595A66;" d="M104,112L104,112c0,4.418-3.582,8-8,8H56c-4.418,0-8-3.582-8-8l0,0c0-4.418,3.582-8.001,8-8.001h40
		C100.418,104,104,107.582,104,112z"/>
	<path style="fill:#595A66;" d="M464,112L464,112c0,4.418-3.582,8-8,8h-32c-4.418,0-8-3.582-8-8l0,0c0-4.418,3.582-8.001,8-8.001h32
		C460.418,104,464,107.582,464,112z"/>
	<path style="fill:#595A66;" d="M400,112L400,112c0,4.418-3.582,8-8,8h-32c-4.418,0-8-3.582-8-8l0,0c0-4.418,3.582-8.001,8-8.001h32
		C396.418,104,400,107.582,400,112z"/>
	<path style="fill:#595A66;" d="M336,112L336,112c0,4.418-3.582,8-8,8h-32c-4.418,0-8-3.582-8-8l0,0c0-4.418,3.582-8.001,8-8.001h32
		C332.418,104,336,107.582,336,112z"/>
</g>
<path style="fill:#E2E5E7;" d="M120,40h368c4.418,0,8,3.582,8,8l0,0c0,4.418-3.582,8-8,8H120c-4.418,0-8-3.582-8-8l0,0
	C112,43.582,115.582,40,120,40z"/>
</svg>