<?xml version="1.0" standalone="no"?><svg xmlns:xlink="http://www.w3.org/1999/xlink" xmlns="http://www.w3.org/2000/svg" viewBox="0 0 1000 272.7261001517451" preserveAspectRatio="xMaxYMax slice"><g transform="scale(0.7587253414264037)"><rect x="0" y="0" width="1318" height="359.45454545454544" fill="#ffffff"/><rect x="0" y="0" width="119.82" height="119.82" fill="#000000"/><polygon points="119.82,0 119.82,119.82 0,119.82" fill="#000000"/><rect x="119.82" y="0" width="119.82" height="119.82" fill="#a6120d"/><path d="M 119.82 119.82 A 119.82 119.82 0 0 0 239.64 0 L 119.82 0" fill="#000000"/><rect x="239.64" y="0" width="119.82" height="119.82" fill="#a6120d"/><rect x="239.64" y="0" width="119.82" height="119.82" fill="#a6120d"/><rect x="359.45" y="0" width="119.82" height="119.82" fill="#a6120d"/><rect x="359.45" y="0" width="119.82" height="119.82" fill="#dd1b16"/><rect x="479.27" y="0" width="119.82" height="119.82" fill="#a6120d"/><path d="M 479.27 119.82 A 119.82 119.82 0 0 1  599.0899999999999 0 L 599.0899999999999 119.82" fill="#000000"/><rect x="599.09" y="0" width="119.82" height="119.82" fill="#dd1b16"/><path d="M 599.09 119.82 A 119.82 119.82 0 0 0 718.9100000000001 0 L 599.09 0" fill="#a6120d"/><rect x="718.91" y="0" width="119.82" height="119.82" fill="#a6120d"/><rect x="718.91" y="0" width="119.82" height="119.82" fill="#dd1b16"/><rect x="838.73" y="0" width="119.82" height="119.82" fill="#000000"/><path d="M 838.73 119.82 A 119.82 119.82 0 0 1  958.55 0 L 958.55 119.82" fill="#a6120d"/><rect x="958.55" y="0" width="119.82" height="119.82" fill="#000000"/><rect x="958.55" y="0" width="119.82" height="119.82" fill="#000000"/><rect x="1078.36" y="0" width="119.82" height="119.82" fill="#dd1b16"/><polygon points="1198.1799999999998,0 1198.1799999999998,119.82 1078.36,119.82" fill="#a6120d"/><rect x="1198.18" y="0" width="119.82" height="119.82" fill="#a6120d"/><polygon points="1198.18,0 1318,119.82 1198.18,119.82" fill="#a6120d"/><rect x="0" y="119.82" width="119.82" height="119.82" fill="#000000"/><rect x="0" y="119.82" width="119.82" height="119.82" fill="#000000"/><rect x="119.82" y="119.82" width="119.82" height="119.82" fill="#a6120d"/><path d="M 119.82 119.82 A 119.82 119.82 0 0 0 239.64 239.64 L 239.64 119.82" fill="#000000"/><rect x="239.64" y="119.82" width="119.82" height="119.82" fill="#dd1b16"/><polygon points="239.64,119.82 359.46,119.82 359.46,239.64" fill="#dd1b16"/><rect x="359.45" y="119.82" width="119.82" height="119.82" fill="#a6120d"/><path d="M 359.45 119.82 A 119.82 119.82 0 0 1 479.27 239.64 L 359.45 239.64" fill="#a6120d"/><rect x="479.27" y="119.82" width="119.82" height="119.82" fill="#a6120d"/><rect x="479.27" y="119.82" width="119.82" height="119.82" fill="#a6120d"/><rect x="599.09" y="119.82" width="119.82" height="119.82" fill="#000000"/><polygon points="599.09,119.82 718.9100000000001,119.82 718.9100000000001,239.64" fill="#dd1b16"/><rect x="718.91" y="119.82" width="119.82" height="119.82" fill="#a6120d"/><polygon points="718.91,119.82 838.73,119.82 838.73,239.64" fill="#000000"/><rect x="838.73" y="119.82" width="119.82" height="119.82" fill="#000000"/><polygon points="838.73,119.82 958.55,119.82 838.73,239.64" fill="#000000"/><rect x="958.55" y="119.82" width="119.82" height="119.82" fill="#000000"/><rect x="958.55" y="119.82" width="119.82" height="119.82" fill="#dd1b16"/><rect x="1078.36" y="119.82" width="119.82" height="119.82" fill="#a6120d"/><polygon points="1198.1799999999998,119.82 1198.1799999999998,239.64 1078.36,239.64" fill="#dd1b16"/><rect x="1198.18" y="119.82" width="119.82" height="119.82" fill="#000000"/><rect x="1198.18" y="119.82" width="119.82" height="119.82" fill="#000000"/><rect x="0" y="239.64" width="119.82" height="119.82" fill="#000000"/><path d="M 0 239.64 A 119.82 119.82 0 0 0 119.82 359.46 L 119.82 239.64" fill="#a6120d"/><rect x="119.82" y="239.64" width="119.82" height="119.82" fill="#a6120d"/><path d="M 119.82 359.46 A 119.82 119.82 0 0 1  239.64 239.64 L 239.64 359.46" fill="#dd1b16"/><rect x="239.64" y="239.64" width="119.82" height="119.82" fill="#dd1b16"/><rect x="239.64" y="239.64" width="119.82" height="119.82" fill="#dd1b16"/><rect x="359.45" y="239.64" width="119.82" height="119.82" fill="#a6120d"/><rect x="359.45" y="239.64" width="119.82" height="119.82" fill="#000000"/><rect x="479.27" y="239.64" width="119.82" height="119.82" fill="#a6120d"/><polygon points="479.27,239.64 599.0899999999999,239.64 599.0899999999999,359.46" fill="#dd1b16"/><rect x="599.09" y="239.64" width="119.82" height="119.82" fill="#dd1b16"/><polygon points="599.09,239.64 718.9100000000001,239.64 718.9100000000001,359.46" fill="#a6120d"/><rect x="718.91" y="239.64" width="119.82" height="119.82" fill="#a6120d"/><path d="M 718.91 359.46 A 119.82 119.82 0 0 1  838.73 239.64 L 718.91 359.46 A 119.82 119.82 0 0 0 838.73 239.64" fill="#a6120d"/><rect x="838.73" y="239.64" width="119.82" height="119.82" fill="#a6120d"/><rect x="838.73" y="239.64" width="119.82" height="119.82" fill="#000000"/><rect x="958.55" y="239.64" width="119.82" height="119.82" fill="#dd1b16"/><polygon points="958.55,239.64 1078.37,239.64 958.55,359.46" fill="#000000"/><rect x="1078.36" y="239.64" width="119.82" height="119.82" fill="#a6120d"/><path d="M 1078.36 359.46 A 119.82 119.82 0 0 1  1198.1799999999998 239.64 L 1198.1799999999998 359.46" fill="#a6120d"/><rect x="1198.18" y="239.64" width="119.82" height="119.82" fill="#dd1b16"/><rect x="1198.18" y="239.64" width="119.82" height="119.82" fill="#dd1b16"/></g></svg>